# xmcd CD database file
#
# Track frame offsets:
#	150
#	34170
#	77345
#	100992
#	130972
#	174130
#
# Disc length: 2694 seconds
#
# Revision: 5
# Processed by: cddbd v1.5PL3 Copyright (c) Steve Scherf et al.
# Submitted via: CDex 1.51
#
DISCID=3d0a8406
DTITLE=Abbey Lincoln and Archie Shepp - Painted Lady
DYEAR=1987
DGENRE=Jazz
TTITLE0=Sophisticated Lady
TTITLE1=Golden Lady
TTITLE2=Painted Lady On The Stage
TTITLE3=Throw It Away
TTITLE4=What Are You Doing The Rest Of Your Life
TTITLE5=Caged Bird
EXTD=ITM 1422\nAbbey Lincoln - Archie Shepp\t: PAINTED LADY\nThe Band:\tAbbeyLincol (vocal]\n\t\tArchie Shepp (sopran and tenor saxophones]\n\t\tRoy Burrowes (trumpet]\n\t\tHilton Ruiz (piano]\n\t\tJack Gregg (bass]\n\t\tFreddie Watts (drums]\nrecorded in 
EXTD=Paris (Blue Marge): 1987 YEAR: 1987
EXTT0=
EXTT1=
EXTT2=
EXTT3=
EXTT4=
EXTT5=
PLAYORDER=
